<svg xmlns="http://www.w3.org/2000/svg" version="1.0" width="250.000000pt" height="45.300000pt" viewBox="0 0 1087.000000 197.000000" preserveAspectRatio="xMidYMid meet">
<g transform="translate(0.000000,197.000000) scale(0.100000,-0.100000)" fill="#ffffff" stroke="none">
<path d="M6070 1914 c-44 -9 -154 -46 -195 -67 -170 -85 -292 -211 -798 -820 -109 -131 -229 -273 -267 -316 l-68 -78 -144 -6 c-291 -13 -502 -73 -651 -186 -57 -42 -107 -114 -107 -150 1 -41 35 -106 71 -134 101 -77 240 -92 389 -43 157 51 359 156 457 236 l48 40 170 0 c289 0 645 -35 808 -80 37 -10 67 -15 67 -10 0 5 -11 21 -24 37 l-24 29 51 18 c79 28 150 78 256 180 96 93 96 93 156 98 107 10 256 92 413 228 l83 72 44 -22 c25 -12 63 -24 85 -27 22 -3 43 -9 45 -13 3 -4 -27 -33 -65 -65 -155 -124 -215 -214 -214 -315 2 -105 47 -150 153 -150 52 0 72 6 146 45 95 50 173 102 321 215 l101 78 -14 -52 c-17 -63 -10 -145 18 -203 24 -49 83 -83 145 -83 140 0 458 150 705 332 132 97 128 87 -34 -78 -80 -82 -98 -106 -99 -132 -1 -42 17 -62 59 -62 64 0 139 52 499 345 82 67 82 63 2 -48 -80 -111 -93 -143 -92 -220 0 -51 5 -73 20 -94 34 -45 70 -66 124 -71 45 -4 61 0 125 32 40 21 130 81 200 134 70 53 136 103 146 110 17 13 18 12 9 -19 -25 -87 -9 -170 45 -225 41 -43 43 -44 106 -44 50 0 77 6 124 29 113 54 377 256 637 490 142 127 148 131 170 117 20 -12 32 -12 86 -1 34 7 86 16 115 20 49 6 51 5 32 -10 -11 -9 -65 -41 -120 -72 -310 -173 -412 -242 -450 -307 -14 -24 -25 -56 -25 -73 0 -38 36 -91 78 -116 31 -18 41 -19 130 -9 54 6 151 25 217 42 139 35 203 40 236 16 26 -18 59 -21 59 -6 0 31 -98 173 -131 190 -40 22 -164 10 -282 -27 -75 -23 -76 -4 -5 54 119 95 301 214 511 332 35 20 57 39 57 50 0 9 -22 39 -50 66 -44 44 -56 50 -107 56 -74 9 -260 -7 -349 -29 l-69 -17 2 -48 1 -47 -116 -83 c-223 -159 -607 -404 -668 -427 -77 -30 -96 24 -43 119 78 139 377 471 515 573 59 43 66 45 150 52 218 16 616 64 628 76 13 13 0 26 -49 50 -82 40 -146 51 -307 57 -156 6 -158 6 -158 28 0 13 18 50 40 83 61 91 53 112 -46 112 -54 0 -73 -16 -159 -133 -48 -66 -78 -98 -95 -101 -14 -3 -83 -10 -155 -16 -116 -10 -322 -36 -563 -71 -87 -13 -97 -23 -48 -48 16 -7 36 -21 46 -31 29 -29 124 -43 305 -44 201 -1 203 -2 104 -91 -36 -33 -103 -102 -150 -153 -161 -178 -562 -452 -660 -452 l-31 0 4 55 c4 42 13 67 41 108 35 50 177 215 274 317 66 70 55 104 -39 116 -42 5 -45 4 -219 -128 -200 -151 -288 -213 -294 -207 -2 3 40 65 94 140 54 75 100 143 103 151 8 20 -1 32 -39 52 -60 30 -76 21 -141 -76 -33 -48 -140 -128 -367 -275 -233 -150 -412 -227 -558 -239 -70 -6 -76 -5 -87 15 -14 27 -2 68 40 134 31 50 52 57 82 30 27 -25 69 -18 162 26 153 71 318 204 346 276 24 63 -4 126 -71 160 -94 49 -286 -24 -484 -185 -190 -154 -593 -400 -697 -426 -25 -5 -28 -3 -28 18 0 57 114 170 324 320 71 51 131 98 133 104 2 6 -11 31 -30 55 -40 53 -69 59 -163 33 -87 -23 -131 -15 -259 46 -94 45 -118 53 -164 52 -103 -3 -121 -60 -46 -141 l46 -49 -38 -29 c-72 -57 -208 -144 -270 -174 -66 -31 -128 -48 -122 -33 2 6 25 53 52 105 80 159 84 241 14 293 -24 17 -31 18 -60 8 -25 -9 -40 -9 -63 0 -28 10 -39 7 -125 -36 -155 -77 -272 -176 -380 -323 -54 -72 -110 -193 -117 -248 -4 -41 -6 -44 -26 -33 -46 25 -170 49 -338 65 -98 10 -178 21 -178 26 0 5 24 37 54 70 58 68 225 289 410 545 207 286 377 454 548 541 125 65 161 50 97 -39 -75 -103 -324 -322 -504 -442 -66 -44 -122 -85 -124 -90 -6 -17 110 3 193 34 225 82 403 206 515 357 84 113 97 172 54 237 -35 53 -143 85 -233 68z m1950 -835 c0 -39 -158 -173 -277 -236 -58 -30 -68 -33 -71 -18 -2 9 5 26 15 37 41 47 191 172 238 199 51 29 95 38 95 18z m-1750 -41 c0 -22 -60 -140 -88 -170 -21 -25 -57 -23 -69 5 -16 35 3 66 89 145 53 47 68 52 68 20z m-259 -210 c12 -24 30 -54 40 -67 11 -13 19 -29 19 -35 0 -21 -91 -116 -156 -162 -76 -54 -144 -71 -144 -36 0 31 36 118 78 187 37 61 118 155 133 155 5 0 18 -19 30 -42z m-1572 -482 c-141 -107 -293 -158 -445 -147 -30 2 -38 30 -17 54 48 54 297 124 447 126 l59 1 -44 -34z"></path>
<path d="M1256 1814 c-193 -26 -397 -84 -530 -151 -122 -61 -208 -124 -312 -228 -143 -142 -170 -209 -122 -305 66 -130 251 -178 634 -165 169 5 207 4 238 -9 30 -12 36 -20 36 -45 0 -123 -349 -273 -879 -380 -83 -17 -153 -31 -156 -31 -3 0 -5 -52 -5 -115 0 -92 3 -115 14 -115 8 0 70 7 138 15 480 60 919 263 1029 476 30 59 32 150 3 199 -24 42 -92 86 -165 106 -35 10 -140 18 -294 25 -242 9 -327 20 -378 45 -73 38 7 127 221 249 254 143 542 220 867 231 133 5 163 4 180 -9 17 -13 18 -18 7 -41 -21 -47 -62 -64 -414 -170 -84 -26 -109 -46 -73 -59 34 -14 217 -18 305 -8 114 13 197 41 270 90 73 49 93 78 92 136 -4 198 -316 313 -706 259z"></path>
<path d="M2036 1175 c-194 -69 -426 -250 -589 -460 -111 -143 -135 -209 -101 -281 22 -46 64 -67 114 -59 54 9 207 112 302 203 43 41 81 72 84 69 4 -3 1 -44 -6 -90 -21 -138 12 -193 98 -164 72 25 289 184 547 402 33 28 69 57 80 65 31 24 -37 -66 -156 -205 -60 -70 -109 -133 -109 -141 0 -19 50 -54 78 -54 27 0 86 43 366 262 82 65 152 116 155 113 2 -3 -16 -27 -40 -53 -106 -110 -209 -255 -209 -293 0 -59 71 -78 139 -37 64 39 265 193 425 326 28 23 52 40 54 37 2 -2 -25 -46 -60 -97 -71 -103 -88 -141 -88 -202 0 -103 48 -164 135 -174 96 -10 197 50 513 306 133 108 354 319 366 349 7 16 6 27 -1 34 -13 13 -43 -7 -323 -216 -227 -170 -290 -212 -377 -252 -111 -51 -149 -41 -119 32 29 68 49 93 318 384 54 58 98 113 98 122 0 19 -68 69 -94 69 -25 0 -52 -16 -117 -69 -98 -80 -439 -314 -447 -307 -2 3 32 55 77 116 107 146 112 157 82 181 -46 38 -56 33 -303 -136 -178 -122 -241 -155 -185 -97 35 36 127 191 127 213 0 10 -12 32 -26 49 -37 43 -68 38 -112 -20 -38 -50 -117 -110 -345 -264 -238 -161 -367 -233 -367 -206 0 34 60 117 237 327 57 68 103 129 103 137 0 24 -68 69 -98 63 -19 -4 -32 1 -49 19 -29 32 -85 31 -177 -1z m124 -124 c0 -18 -383 -344 -484 -411 -67 -45 -76 -48 -76 -20 0 61 281 324 425 397 75 39 135 54 135 34z"></path>
</g>
</svg>